<?xml version="1.0" encoding="UTF-8"?>
<svg version="1.1" xmlns="http://www.w3.org/2000/svg" width="512" height="512">
<path d="M0 0 C2.63279349 0.02383174 5.26458506 0.02050797 7.89746094 0.01391602 C9.59277941 0.01948739 11.28809368 0.02659385 12.98339844 0.03540039 C13.75956512 0.03448898 14.53573181 0.03357758 15.3354187 0.03263855 C20.17193825 0.09507994 24.14089678 0.83820367 28.74121094 2.33618164 C30.38276463 2.67043466 32.02846857 2.98536975 33.67871094 3.27368164 C38.28898264 4.17493776 42.41094339 5.543544 46.74121094 7.33618164 C47.64613281 7.68551758 48.55105469 8.03485352 49.48339844 8.39477539 C64.47868476 14.33446672 79.59833519 23.50506945 90.74121094 35.33618164 C90.74121094 35.99618164 90.74121094 36.65618164 90.74121094 37.33618164 C92.06121094 37.99618164 93.38121094 38.65618164 94.74121094 39.33618164 C94.74121094 39.99618164 94.74121094 40.65618164 94.74121094 41.33618164 C95.73121094 41.66618164 96.72121094 41.99618164 97.74121094 42.33618164 C99.78417969 44.76977539 99.78417969 44.76977539 101.92871094 47.77368164 C102.64414062 48.76239258 103.35957031 49.75110352 104.09667969 50.76977539 C105.74121094 53.33618164 105.74121094 53.33618164 105.74121094 55.33618164 C106.40121094 55.33618164 107.06121094 55.33618164 107.74121094 55.33618164 C109.16946737 57.95465177 110.59665975 60.57362272 112.01855469 63.19555664 C113.11589719 65.19615385 114.23127608 67.18703815 115.37011719 69.16430664 C118.75291071 75.09903211 121.04637099 80.72859619 122.74121094 87.33618164 C123.07121094 88.42930664 123.40121094 89.52243164 123.74121094 90.64868164 C124.07121094 91.86555664 124.40121094 93.08243164 124.74121094 94.33618164 C124.98492432 95.17012451 125.2286377 96.00406738 125.47973633 96.86328125 C127.89917496 105.97528901 128.23517992 114.66158089 128.18725586 124.0456543 C128.17876834 126.56911586 128.20757611 129.09028692 128.23925781 131.61352539 C128.30734234 146.81316401 125.50491656 160.37783835 119.49121094 174.39868164 C119.12769531 175.27588867 118.76417969 176.1530957 118.38964844 177.05688477 C117.51825371 179.15511154 116.63582301 181.24777682 115.74121094 183.33618164 C115.08121094 183.33618164 114.42121094 183.33618164 113.74121094 183.33618164 C113.59683594 184.28493164 113.45246094 185.23368164 113.30371094 186.21118164 C112.74121094 189.33618164 112.74121094 189.33618164 111.74121094 191.33618164 C111.08121094 191.33618164 110.42121094 191.33618164 109.74121094 191.33618164 C109.08121094 193.31618164 108.42121094 195.29618164 107.74121094 197.33618164 C107.08121094 197.33618164 106.42121094 197.33618164 105.74121094 197.33618164 C105.47824219 198.06836914 105.21527344 198.80055664 104.94433594 199.55493164 C101.93806462 206.50449391 96.61432822 211.73982898 90.74121094 216.33618164 C89.97550781 217.10446289 89.20980469 217.87274414 88.42089844 218.66430664 C70.69735129 236.33618164 70.69735129 236.33618164 62.74121094 236.33618164 C62.74121094 236.99618164 62.74121094 237.65618164 62.74121094 238.33618164 C60.10121094 238.99618164 57.46121094 239.65618164 54.74121094 240.33618164 C54.74121094 240.99618164 54.74121094 241.65618164 54.74121094 242.33618164 C54.07734375 242.52954102 53.41347656 242.72290039 52.72949219 242.92211914 C47.4296108 244.46540632 47.4296108 244.46540632 42.24121094 246.33618164 C18.24848967 255.93327015 -10.9442567 255.41501535 -35.25878906 247.33618164 C-36.61933503 246.90868078 -37.98000407 246.48157137 -39.34082031 246.05493164 C-40.571875 245.65274414 -41.80292969 245.25055664 -43.07128906 244.83618164 C-44.31523437 244.43399414 -45.55917969 244.03180664 -46.84082031 243.61743164 C-49.94280368 242.45463102 -52.46689112 241.09025365 -55.25878906 239.33618164 C-56.24878906 239.00618164 -57.23878906 238.67618164 -58.25878906 238.33618164 C-58.25878906 237.67618164 -58.25878906 237.01618164 -58.25878906 236.33618164 C-59.12375 236.08481445 -59.98871094 235.83344727 -60.87988281 235.57446289 C-64.4388141 234.27020715 -67.18393523 232.64088945 -70.32128906 230.52368164 C-71.32289063 229.85723633 -72.32449219 229.19079102 -73.35644531 228.50415039 C-76.27797772 226.32184825 -78.72356876 223.94981082 -81.25878906 221.33618164 C-82.02191406 220.77930664 -82.78503906 220.22243164 -83.57128906 219.64868164 C-84.12816406 219.21555664 -84.68503906 218.78243164 -85.25878906 218.33618164 C-85.25878906 217.67618164 -85.25878906 217.01618164 -85.25878906 216.33618164 C-87.23878906 215.34618164 -87.23878906 215.34618164 -89.25878906 214.33618164 C-89.25878906 213.67618164 -89.25878906 213.01618164 -89.25878906 212.33618164 C-77.04878906 212.33618164 -64.83878906 212.33618164 -52.25878906 212.33618164 C-52.58878906 209.03618164 -52.91878906 205.73618164 -53.25878906 202.33618164 C-75.03878906 202.33618164 -96.81878906 202.33618164 -119.25878906 202.33618164 C-119.25878906 198.04618164 -119.25878906 193.75618164 -119.25878906 189.33618164 C-113.97878906 189.00618164 -108.69878906 188.67618164 -103.25878906 188.33618164 C-103.25878906 187.67618164 -103.25878906 187.01618164 -103.25878906 186.33618164 C-112.16878906 186.33618164 -121.07878906 186.33618164 -130.25878906 186.33618164 C-130.25878906 188.64618164 -130.25878906 190.95618164 -130.25878906 193.33618164 C-132.89878906 193.33618164 -135.53878906 193.33618164 -138.25878906 193.33618164 C-138.25878906 195.97618164 -138.25878906 198.61618164 -138.25878906 201.33618164 C-140.89878906 201.33618164 -143.53878906 201.33618164 -146.25878906 201.33618164 C-146.25878906 204.30618164 -146.25878906 207.27618164 -146.25878906 210.33618164 C-149.55878906 210.33618164 -152.85878906 210.33618164 -156.25878906 210.33618164 C-156.25878906 201.09618164 -156.25878906 191.85618164 -156.25878906 182.33618164 C-154.27878906 182.33618164 -152.29878906 182.33618164 -150.25878906 182.33618164 C-150.25878906 180.02618164 -150.25878906 177.71618164 -150.25878906 175.33618164 C-147.61878906 175.33618164 -144.97878906 175.33618164 -142.25878906 175.33618164 C-142.25878906 172.69618164 -142.25878906 170.05618164 -142.25878906 167.33618164 C-134.33878906 167.33618164 -126.41878906 167.33618164 -118.25878906 167.33618164 C-118.75378906 163.87118164 -118.75378906 163.87118164 -119.25878906 160.33618164 C-150.93878906 160.33618164 -182.61878906 160.33618164 -215.25878906 160.33618164 C-215.25878906 156.04618164 -215.25878906 151.75618164 -215.25878906 147.33618164 C-184.56878906 147.00618164 -153.87878906 146.67618164 -122.25878906 146.33618164 C-122.58878906 146.00618164 -122.91878906 145.67618164 -123.25878906 145.33618164 C-123.25878906 142.36618164 -123.25878906 139.39618164 -123.25878906 136.33618164 C-133.48878906 136.33618164 -143.71878906 136.33618164 -154.25878906 136.33618164 C-154.25878906 131.71618164 -154.25878906 127.09618164 -154.25878906 122.33618164 C-127.03378906 121.84118164 -127.03378906 121.84118164 -99.25878906 121.33618164 C-99.25878906 118.69618164 -99.25878906 116.05618164 -99.25878906 113.33618164 C-136.54878906 113.00618164 -173.83878906 112.67618164 -212.25878906 112.33618164 C-212.25878906 107.71618164 -212.25878906 103.09618164 -212.25878906 98.33618164 C-181.89878906 98.33618164 -151.53878906 98.33618164 -120.25878906 98.33618164 C-119.92878906 95.03618164 -119.59878906 91.73618164 -119.25878906 88.33618164 C-127.17878906 88.00618164 -135.09878906 87.67618164 -143.25878906 87.33618164 C-143.25878906 83.04618164 -143.25878906 78.75618164 -143.25878906 74.33618164 C-124.11878906 74.33618164 -104.97878906 74.33618164 -85.25878906 74.33618164 C-85.25878906 70.70618164 -85.25878906 67.07618164 -85.25878906 63.33618164 C-114.29878906 63.33618164 -143.33878906 63.33618164 -173.25878906 63.33618164 C-173.25878906 58.71618164 -173.25878906 54.09618164 -173.25878906 49.33618164 C-125.40878906 49.33618164 -77.55878906 49.33618164 -28.25878906 49.33618164 C-28.25878906 45.70618164 -28.25878906 42.07618164 -28.25878906 38.33618164 C-48.05878906 38.33618164 -67.85878906 38.33618164 -88.25878906 38.33618164 C-88.25878906 37.67618164 -88.25878906 37.01618164 -88.25878906 36.33618164 C-84.7972506 33.33618164 -84.7972506 33.33618164 -82.25878906 33.33618164 C-81.92878906 32.34618164 -81.59878906 31.35618164 -81.25878906 30.33618164 C-79.73535156 29.05493164 -79.73535156 29.05493164 -77.88378906 27.83618164 C-76.01775875 26.59745514 -74.37856991 25.45854537 -72.80957031 23.85571289 C-55.13704257 6.53930661 -23.74002433 -0.23007363 0 0 Z " fill="#01D49B" transform="translate(325.2587890625,115.663818359375)"/>
<path d="M0 0 C20.79 0 41.58 0 63 0 C63 2.31 63 4.62 63 7 C65.64 7 68.28 7 71 7 C71 9.64 71 12.28 71 15 C72.98 15 74.96 15 77 15 C77 17.64 77 20.28 77 23 C80.3 23 83.6 23 87 23 C87 25.64 87 28.28 87 31 C89.64 31 92.28 31 95 31 C95 33.64 95 36.28 95 39 C97.64 39 100.28 39 103 39 C103 41.97 103 44.94 103 48 C107.62 48 112.24 48 117 48 C117 45.36 117 42.72 117 40 C119.97 40 122.94 40 126 40 C126 37.03 126 34.06 126 31 C128.64 31 131.28 31 134 31 C134 26.05 134 21.1 134 16 C139.28 16 144.56 16 150 16 C150 24.25 150 32.5 150 41 C147.36 41 144.72 41 142 41 C142 43.31 142 45.62 142 48 C139.36 48 136.72 48 134 48 C134 50.64 134 53.28 134 56 C131.36 56 128.72 56 126 56 C126 58.97 126 61.94 126 65 C115.44 65 104.88 65 94 65 C94 62.36 94 59.72 94 57 C91.36 57 88.72 57 86 57 C86 54.03 86 51.06 86 48 C81.05 48 76.1 48 71 48 C71 50.97 71 53.94 71 57 C68.03 57 65.06 57 62 57 C62 59.31 62 61.62 62 64 C59.36 64 56.72 64 54 64 C54 67.3 54 70.6 54 74 C59.28 74 64.56 74 70 74 C70 76.64 70 79.28 70 82 C72.64 82 75.28 82 78 82 C78 83.98 78 85.96 78 88 C80.97 88 83.94 88 87 88 C87 93.94 87 99.88 87 106 C84.03 106 81.06 106 78 106 C78 108.64 78 111.28 78 114 C75.36 114 72.72 114 70 114 C70 116.64 70 119.28 70 122 C67.36 122 64.72 122 62 122 C62 124.31 62 126.62 62 129 C59.36 129 56.72 129 54 129 C54 131.64 54 134.28 54 137 C49.38 137 44.76 137 40 137 C40 143.93 40 150.86 40 158 C41.98 158 43.96 158 46 158 C46 160.97 46 163.94 46 167 C40.72 167 35.44 167 30 167 C30 164.36 30 161.72 30 159 C27.36 159 24.72 159 22 159 C22 156.69 22 154.38 22 152 C19.36 152 16.72 152 14 152 C14 146.72 14 141.44 14 136 C16.64 136 19.28 136 22 136 C22 133.36 22 130.72 22 128 C24.64 128 27.28 128 30 128 C30 125.69 30 123.38 30 121 C32.64 121 35.28 121 38 121 C38 118.36 38 115.72 38 113 C42.95 113 47.9 113 53 113 C53 110.36 53 107.72 53 105 C55.64 105 58.28 105 61 105 C61 102.36 61 99.72 61 97 C44.17 97 27.34 97 10 97 C10 98.98 10 100.96 10 103 C9 104 9 104 5.9375 104.0625 C4.968125 104.041875 3.99875 104.02125 3 104 C3 105.65 3 107.3 3 109 C0.69 109 -1.62 109 -4 109 C-4 111.31 -4 113.62 -4 116 C-6.97 116 -9.94 116 -13 116 C-13 117.98 -13 119.96 -13 122 C-35.67156723 122.64481916 -58.31728989 123.18597076 -81 123 C-81 125.31 -81 127.62 -81 130 C-83.64 130 -86.28 130 -89 130 C-89 132.64 -89 135.28 -89 138 C-91.64 138 -94.28 138 -97 138 C-97 140.97 -97 143.94 -97 147 C-100.3 147 -103.6 147 -107 147 C-107 137.76 -107 128.52 -107 119 C-105.02 119 -103.04 119 -101 119 C-101 116.69 -101 114.38 -101 112 C-98.36 112 -95.72 112 -93 112 C-93 109.36 -93 106.72 -93 104 C-71.98247038 103.81466023 -51.00497941 104.3537987 -30 105 C-30 102.69 -30 100.38 -30 98 C-27.69 98 -25.38 98 -23 98 C-23 95.36 -23 92.72 -23 90 C-20.36 90 -17.72 90 -15 90 C-15 87.36 -15 84.72 -15 82 C-12.36 82 -9.72 82 -7 82 C-7 79.03 -7 76.06 -7 73 C-4.36 73 -1.72 73 1 73 C1 70.36 1 67.72 1 65 C3.31 65 5.62 65 8 65 C8 62.36 8 59.72 8 57 C10.31 57 12.62 57 15 57 C15 54.36 15 51.72 15 49 C17.64 49 20.28 49 23 49 C23 46.36 23 43.72 23 41 C25.31 41 27.62 41 30 41 C30 38.03 30 35.06 30 32 C32.64 32 35.28 32 38 32 C38 29.69 38 27.38 38 25 C44.6 25 51.2 25 58 25 C58 22.36 58 19.72 58 17 C52.06 17 46.12 17 40 17 C40 18.98 40 20.96 40 23 C33.73 23 27.46 23 21 23 C21 21.02 21 19.04 21 17 C18.03 17 15.06 17 12 17 C12 18.98 12 20.96 12 23 C9.36 23 6.72 23 4 23 C4 25.97 4 28.94 4 32 C2.02 32 0.04 32 -2 32 C-2 34.64 -2 37.28 -2 40 C-5.3 40 -8.6 40 -12 40 C-12 44.95 -12 49.9 -12 55 C-17.94 55 -23.88 55 -30 55 C-30 46.75 -30 38.5 -30 30 C-27.36 30 -24.72 30 -22 30 C-22 27.36 -22 24.72 -22 22 C-19.36 22 -16.72 22 -14 22 C-14 19.69 -14 17.38 -14 15 C-11.69 15 -9.38 15 -7 15 C-7 13.02 -7 11.04 -7 9 C-4.69 9 -2.38 9 0 9 C0 6.03 0 3.06 0 0 Z " fill="#F9FBFB" transform="translate(276,179)"/>
<path d="M0 0 C11.22 0 22.44 0 34 0 C34 2.64 34 5.28 34 8 C36.31 8 38.62 8 41 8 C41 10.97 41 13.94 41 17 C38.69 17 36.38 17 34 17 C34 22.28 34 27.56 34 33 C32.35 33 30.7 33 29 33 C29 35.97 29 38.94 29 42 C28.34 42 27.68 42 27 42 C27 43.98 27 45.96 27 48 C21.06 48 15.12 48 9 48 C9 46.02 9 44.04 9 42 C6.03 42 3.06 42 0 42 C0 39.36 0 36.72 0 34 C-2.64 34 -5.28 34 -8 34 C-8 25.75 -8 17.5 -8 9 C-5.36 9 -2.72 9 0 9 C0 6.03 0 3.06 0 0 Z " fill="#FAFBFB" transform="translate(361,154)"/>
<path d="M0 0 C9.9 0 19.8 0 30 0 C30 4.62 30 9.24 30 14 C20.1 14 10.2 14 0 14 C0 9.38 0 4.76 0 0 Z " fill="#00D49B" transform="translate(110,165)"/>
<path d="M0 0 C7.92 0 15.84 0 24 0 C24 4.29 24 8.58 24 13 C16.08 13 8.16 13 0 13 C0 8.71 0 4.42 0 0 Z " fill="#00D49B" transform="translate(59,263)"/>
</svg>
