<?xml version="1.0" standalone="no"?>
<!DOCTYPE svg PUBLIC "-//W3C//DTD SVG 20010904//EN"
 "http://www.w3.org/TR/2001/REC-SVG-20010904/DTD/svg10.dtd">
<svg version="1.0" xmlns="http://www.w3.org/2000/svg"
 width="300.000000pt" height="225.000000pt" viewBox="0 0 300.000000 225.000000"
 preserveAspectRatio="xMidYMid meet">
<metadata>
Created by potrace 1.10, written by Peter Selinger 2001-2011
</metadata>
<g transform="translate(0.000000,225.000000) scale(0.100000,-0.100000)"
fill="#000000" stroke="none">
<path d="M1370 2178 c-11 -12 -20 -29 -21 -37 -1 -9 -2 -31 -4 -48 -1 -18 1
-30 6 -28 4 3 17 -12 29 -35 11 -22 16 -40 11 -40 -11 0 -54 -90 -65 -135 -24
-99 -27 -107 -44 -102 -10 2 -48 24 -85 48 -71 46 -74 53 -52 112 12 29 -11
19 -40 -19 -31 -40 -48 -40 -55 1 -9 54 -26 33 -44 -56 -3 -14 -19 -45 -36
-70 -16 -24 -30 -55 -30 -69 0 -14 -10 -41 -23 -60 -31 -47 -67 -137 -67 -167
0 -14 9 -38 21 -54 28 -40 68 -40 92 1 21 35 43 38 91 10 32 -19 37 -20 70 -6
53 22 59 8 51 -112 -6 -75 -4 -112 8 -153 8 -30 18 -79 21 -111 3 -31 15 -77
26 -103 19 -45 33 -157 44 -352 3 -67 1 -88 -15 -117 -28 -53 -25 -66 16 -66
l35 0 0 48 c0 26 4 52 10 58 6 6 6 86 0 226 -12 262 -2 310 50 258 28 -28 30
-40 43 -277 11 -193 11 -215 -5 -250 -25 -57 -23 -63 20 -63 48 0 53 5 40 41
-7 19 -6 39 1 62 7 22 8 61 3 117 -5 50 -4 152 2 245 l11 160 50 8 c86 15 87
14 98 -18 5 -16 16 -37 23 -46 27 -31 44 -127 44 -250 0 -100 -3 -126 -20
-159 -28 -55 -26 -62 18 -58 l37 3 0 50 c0 28 5 59 11 70 17 30 8 311 -11 365
-19 54 -19 131 0 156 24 32 35 0 35 -106 0 -109 15 -210 36 -256 12 -24 14
-56 11 -131 -2 -54 -8 -111 -12 -126 -7 -27 -6 -28 25 -25 l34 3 -3 120 c-2
106 1 128 22 186 21 60 23 73 13 140 -12 89 -13 214 -2 329 12 118 -3 185 -54
243 -50 56 -106 80 -179 75 l-55 -3 -8 35 c-5 21 -3 59 3 93 16 78 7 178 -20
219 -11 18 -29 45 -38 60 -10 15 -26 29 -35 32 -14 3 -18 15 -18 51 0 38 -5
52 -29 76 -35 35 -63 37 -91 7z"/>
<path d="M790 1224 c-18 -28 -20 -37 -10 -49 7 -8 9 -23 5 -32 -4 -10 -17 -58
-30 -106 -13 -48 -28 -94 -34 -101 -13 -16 -32 -101 -31 -139 0 -16 -3 -34 -7
-40 -4 -7 -9 -23 -10 -37 -1 -14 -5 -38 -8 -55 -3 -16 -10 -74 -16 -129 -8
-84 -8 -101 6 -115 8 -10 15 -27 15 -39 0 -29 16 -28 25 1 4 13 8 17 12 10 2
-7 9 -13 14 -13 12 0 12 37 -1 45 -17 10 -11 25 9 25 17 0 31 18 31 40 0 5 -9
10 -20 12 -20 3 -20 4 -3 28 10 14 18 43 18 67 0 27 7 47 17 55 9 8 18 35 21
67 4 29 13 63 21 75 12 20 18 49 30 171 3 22 9 76 15 120 9 67 8 87 -5 122
-21 55 -38 60 -64 17z"/>
<path d="M2399 1234 c-7 -9 -14 -42 -15 -73 -1 -32 -12 -86 -23 -121 -12 -35
-21 -70 -21 -78 0 -8 -7 -20 -16 -27 -9 -6 -19 -31 -21 -56 -3 -24 -7 -60 -10
-79 -2 -19 -6 -48 -8 -65 -3 -16 -9 -52 -15 -80 -6 -27 -13 -91 -16 -141 -4
-76 -2 -93 11 -98 8 -3 15 -17 15 -31 0 -14 5 -25 10 -25 6 0 10 7 10 16 0 14
3 14 15 4 13 -11 15 -8 15 13 0 14 -4 29 -10 32 -17 11 -11 23 13 27 26 4 38
48 13 48 -21 0 -20 7 4 37 14 18 17 30 10 42 -10 20 -2 61 16 76 6 6 14 34 17
63 4 29 13 62 22 74 8 13 15 43 15 70 0 26 5 50 10 53 6 4 10 23 9 43 -1 20 4
75 9 122 9 71 8 92 -5 128 -17 45 -32 52 -54 26z"/>
<path d="M2614 1225 c-9 -14 -14 -34 -11 -47 8 -28 -39 -217 -59 -239 -16 -18
-36 -122 -27 -145 3 -8 1 -20 -5 -27 -6 -6 -10 -23 -10 -37 -1 -14 -6 -47 -12
-75 -16 -76 -22 -216 -9 -231 6 -7 14 -25 19 -41 8 -27 9 -27 15 -5 6 18 10
20 21 11 11 -9 14 -7 14 9 0 12 -4 24 -10 27 -17 11 -11 23 13 27 26 4 38 48
13 48 -20 0 -21 14 -2 30 10 7 14 29 14 61 -1 34 3 53 14 62 9 6 18 32 20 57
3 25 12 61 21 80 14 32 19 60 32 175 2 22 8 78 13 124 14 126 -21 201 -64 136z"/>
<path d="M2851 1131 c-6 -10 -13 -38 -17 -62 -4 -24 -13 -53 -19 -64 -7 -11
-16 -36 -19 -56 -4 -21 -15 -48 -24 -60 -10 -13 -29 -44 -41 -68 -20 -40 -21
-49 -10 -88 6 -24 9 -47 5 -50 -4 -4 -9 3 -13 15 -3 12 -8 22 -12 22 -12 0
-29 -84 -24 -123 3 -22 0 -43 -7 -52 -28 -34 -17 -111 14 -99 8 3 16 -4 19
-18 8 -30 20 -16 42 50 9 30 36 93 60 140 23 48 48 104 55 125 11 36 13 37 30
22 10 -9 21 -33 24 -53 16 -91 40 -178 53 -194 13 -14 12 -17 -4 -26 -17 -10
-17 -12 4 -31 12 -12 25 -21 28 -21 9 0 -2 396 -13 490 -15 129 -23 161 -41
168 -9 3 -21 13 -28 21 -10 14 -13 13 -22 -9 -10 -24 -10 -24 -10 8 -1 36 -15
42 -30 13z m6 -73 c-3 -8 -6 -5 -6 6 -1 11 2 17 5 13 3 -3 4 -12 1 -19z m43
-258 c0 -5 -5 -10 -11 -10 -5 0 -7 5 -4 10 3 6 8 10 11 10 2 0 4 -4 4 -10z
m-180 -160 c0 -5 -2 -10 -4 -10 -3 0 -8 5 -11 10 -3 6 -1 10 4 10 6 0 11 -4
11 -10z m-20 -144 c0 -20 -18 -39 -29 -31 -8 4 -9 11 -2 19 6 7 8 23 5 37 -5
23 -5 23 10 5 9 -11 16 -25 16 -30z"/>
<path d="M458 988 c-31 -11 -68 -81 -68 -129 0 -15 -11 -54 -24 -86 -34 -86
-47 -123 -58 -173 -5 -25 -22 -70 -38 -100 -15 -30 -34 -75 -40 -100 -13 -47
-30 -73 -99 -151 -28 -31 -50 -48 -60 -45 -70 21 -71 21 -71 -19 0 -57 51 -91
98 -66 9 6 30 13 45 16 55 11 121 93 191 236 36 73 66 141 66 150 0 21 32 79
43 79 10 0 27 -46 27 -74 0 -13 7 -29 15 -36 8 -7 15 -20 15 -30 0 -14 9 -18
39 -18 36 -1 40 2 46 28 4 16 4 34 1 39 -4 5 -11 67 -16 138 -28 356 -33 370
-112 341z"/>
<path d="M1045 986 c-22 -10 -34 -25 -48 -62 -9 -27 -17 -60 -17 -74 0 -14
-11 -52 -25 -84 -13 -33 -22 -62 -20 -65 3 -2 -1 -14 -8 -25 -8 -12 -20 -46
-27 -76 -8 -30 -24 -73 -36 -95 -12 -22 -29 -62 -37 -90 -29 -101 -140 -232
-172 -205 -12 10 -15 10 -15 -1 0 -10 -3 -10 -12 -1 -7 7 -23 12 -37 12 -18 0
-34 12 -51 35 -34 46 -46 29 -18 -26 35 -67 50 -85 81 -93 15 -3 27 -11 27
-16 0 -13 45 -13 68 -1 9 5 32 15 50 22 18 6 53 35 77 63 47 53 165 282 165
319 0 12 11 36 24 52 l24 30 11 -28 c6 -16 11 -39 11 -51 0 -13 7 -29 15 -36
8 -7 15 -20 15 -30 0 -14 9 -18 40 -18 34 -1 41 3 46 24 3 13 3 41 0 62 -6 39
-26 244 -31 322 -3 58 -24 133 -39 142 -15 10 -26 9 -61 -6z"/>
<path d="M2065 986 c-22 -10 -35 -26 -48 -62 -9 -27 -17 -59 -17 -72 0 -13
-11 -51 -23 -85 -38 -100 -57 -161 -57 -182 0 -11 -13 -45 -29 -75 -16 -30
-34 -75 -41 -100 -22 -84 -132 -222 -162 -204 -7 4 -28 9 -48 11 -25 2 -44 13
-67 40 -22 24 -33 31 -33 20 0 -9 4 -18 9 -21 5 -3 12 -22 15 -41 4 -19 11
-35 16 -35 5 0 12 -9 15 -20 3 -11 14 -20 24 -20 9 0 26 -7 37 -15 21 -16 64
-20 64 -6 0 5 16 12 35 15 58 11 118 82 184 220 33 67 62 132 65 146 14 51 40
100 50 97 6 -2 16 -24 22 -48 23 -94 31 -106 72 -105 l37 1 -1 60 c-1 33 -7
116 -13 185 -6 69 -13 153 -16 188 -4 69 -22 115 -45 119 -8 1 -28 -3 -45 -11z"/>
</g>
</svg>
